<svg width="24" height="24" viewBox="0 0 24 24" fill="none" xmlns="http://www.w3.org/2000/svg">
<path d="M11.9994 20C9.92633 20 8.04604 19.4294 6.3585 18.2883C4.66924 17.1462 3.32006 15.536 2.31095 13.4576C2.20645 13.2323 2.12849 13.002 2.0771 12.7665C2.0257 12.5319 2 12.2927 2 12.0489C2 11.7855 2.02356 11.5248 2.07067 11.267C2.11779 11.0092 2.19788 10.7672 2.31095 10.541C3.32006 8.46353 4.66924 6.85375 6.3585 5.71169C8.04604 4.57056 9.92633 4 11.9994 4C14.0724 4 15.9527 4.57103 17.6402 5.71309C19.3278 6.85515 20.6769 8.46539 21.6878 10.5438C21.8 10.7691 21.8801 11.005 21.928 11.2517C21.976 11.4983 22 11.7482 22 12.0014C22 12.2546 21.976 12.5049 21.928 12.7525C21.8801 13.0001 21.8004 13.2356 21.689 13.459C20.6782 15.5374 19.3291 17.1476 17.6415 18.2897C15.9522 19.4299 14.0715 20 11.9994 20ZM11.9994 15.9986C13.0273 15.9986 13.8981 15.6114 14.6116 14.837C15.3252 14.0626 15.682 13.1169 15.682 12C15.682 10.8831 15.3252 9.93694 14.6116 9.16161C13.8981 8.38627 13.0273 7.99907 11.9994 8C10.9714 8.00093 10.1007 8.38813 9.38709 9.16161C8.67352 9.93508 8.31716 10.8812 8.31802 12C8.31888 13.1188 8.67523 14.0649 9.38709 14.8384C10.0989 15.6119 10.9697 15.9995 11.9994 16.0014M11.9981 14.6052C11.3316 14.6052 10.7658 14.3516 10.3007 13.8443C9.83467 13.338 9.60167 12.7227 9.60167 11.9986C9.60167 11.2745 9.8351 10.6597 10.302 10.1543C10.7688 9.64887 11.335 9.39616 12.0006 9.39616C12.6662 9.39616 13.232 9.64933 13.698 10.1557C14.164 10.662 14.397 11.2773 14.397 12.0014C14.397 12.7255 14.1636 13.3403 13.6968 13.8457C13.2299 14.3521 12.6637 14.6052 11.9981 14.6052Z" fill="#00005C"/>
</svg>
