<svg width="25" height="17" viewBox="0 0 20 16" fill="none" xmlns="http://www.w3.org/2000/svg">
<path d="M9.99936 16C7.92633 16 6.04604 15.4294 4.3585 14.2883C2.66924 13.1462 1.32006 11.536 0.310954 9.45759C0.206446 9.23234 0.128493 9.00198 0.077096 8.76649C0.0256986 8.53194 0 8.29273 0 8.04887C0 7.78546 0.0235569 7.52484 0.0706711 7.26702C0.117785 7.00919 0.19788 6.76719 0.310954 6.54101C1.32006 4.46353 2.66924 2.85375 4.3585 1.71169C6.04604 0.570564 7.92633 0 9.99936 0C12.0724 0 13.9527 0.57103 15.6402 1.71309C17.3278 2.85515 18.6769 4.46539 19.6878 6.54381C19.8 6.76905 19.8801 7.005 19.928 7.25166C19.976 7.49831 20 7.74823 20 8.0014C20 8.25457 19.976 8.50494 19.928 8.75253C19.8801 9.00012 19.8004 9.2356 19.689 9.45899C18.6782 11.5374 17.3291 13.1476 15.6415 14.2897C13.9522 15.4299 12.0715 16 9.99936 16ZM9.99936 11.9986C11.0273 11.9986 11.8981 11.6114 12.6116 10.837C13.3252 10.0626 13.682 9.11693 13.682 8C13.682 6.88307 13.3252 5.93694 12.6116 5.16161C11.8981 4.38627 11.0273 3.99907 9.99936 4C8.97141 4.00093 8.10065 4.38813 7.38709 5.16161C6.67352 5.93508 6.31716 6.88121 6.31802 8C6.31888 9.11879 6.67523 10.0649 7.38709 10.8384C8.09894 11.6119 8.9697 11.9995 9.99936 12.0014M9.99807 10.6052C9.33162 10.6052 8.76582 10.3516 8.30067 9.84433C7.83467 9.33799 7.60167 8.72275 7.60167 7.9986C7.60167 7.27446 7.8351 6.65969 8.30196 6.15428C8.76882 5.64887 9.33505 5.39616 10.0006 5.39616C10.6662 5.39616 11.232 5.64933 11.698 6.15567C12.164 6.66201 12.397 7.27726 12.397 8.0014C12.397 8.72554 12.1636 9.34031 11.6968 9.84573C11.2299 10.3521 10.6637 10.6052 9.99807 10.6052Z" fill="#C5C5FF"/>
</svg>
